<?xml version="1.0" encoding="utf-8" ?>
<svg baseProfile="full" height="300mm" version="1.1" viewBox="0,0,200,300" width="200mm" xmlns="http://www.w3.org/2000/svg" xmlns:ev="http://www.w3.org/2001/xml-events" xmlns:xlink="http://www.w3.org/1999/xlink"><defs /><rect fill="#222222" height="300" width="200" x="0" y="0" /><text fill="#FFFFFF" style="font-size:12px; font-family:Arial; font-weight:bold;" x="10" y="20">Over 3.3km Runs</text><text fill="#FFFFFF" style="font-size:4px; font-family:Arial" x="10" y="280">ATHLETE</text><text fill="#FFFFFF" style="font-size:9px; font-family:Arial" x="10" y="290">huaizhixu</text><text fill="#FFFFFF" style="font-size:4px; font-family:Arial" x="120" y="280">STATISTICS</text><text fill="#FFFFFF" style="font-size:3px; font-family:Arial" x="120" y="285">Number: 8</text><text fill="#FFFFFF" style="font-size:3px; font-family:Arial" x="120" y="290">Weekly: 1.3</text><text fill="#FFFFFF" style="font-size:3px; font-family:Arial" x="141" y="285">Total: 41.7 km</text><text fill="#FFFFFF" style="font-size:3px; font-family:Arial" x="141" y="290">Avg: 5.2 km</text><text fill="#FFFFFF" style="font-size:3px; font-family:Arial" x="167" y="285">Min: 4.6 km</text><text fill="#FFFFFF" style="font-size:3px; font-family:Arial" x="167" y="290">Max: 6.2 km</text><polyline fill="none" points="52.943586429581046,60.00007646577433 53.263181157410145,57.57699892669916 52.62399170361459,54.461611710488796 52.304396975785494,51.0000679702498 52.943586429581046,45.46159275714308 45.91250244341791,37.84617883199826 41.11858154460788,35.76924565061927 37.60303955152631,35.42309003230184 31.850334471091628,37.153867872431874 28.654387203976512,39.57695579295978 25.778034664690495,44.76928290305659 25.778034664690495,48.92314051929861 26.7368188444525,52.03853135649115 26.417224118486047,54.11545744910836 25.45843993872404,55.15392015641555 25.138845210894942,56.53853674745187 27.0564135722816,62.07699909014627 26.7368188444525,65.53853478655219 28.015197752043605,71.42313970159739 27.695603024214506,73.15390447061509 28.015197752043605,74.88466861145571 29.293576657772064,75.92312679393217 29.932766111567616,80.07695726212114 33.448308104649186,83.53847988788038 35.3658764641732,84.92308823438361 41.75777099840343,84.23078411165625 44.31452880986035,83.19232773827389 45.59290771745145,82.15387113951147 49.10844971053302,80.7692619888112 51.34561279602349,77.65388992894441 52.62399170361459,74.19236303027719 51.98480224981904,72.46159863844514 52.62399170361459,67.96160827856511 51.66520752385259,51.0000679702498 52.943586429581046,48.57698585651815 53.263181157410145,45.80774764670059 50.70642334409058,39.92311110952869 48.78885498456657,37.84617883199826 45.59290771745145,35.76924565061927 42.39696045033634,36.46155681181699 37.92263427749276,35.42309003230184 35.3658764641732,36.11540124332532 29.613171383738518,39.92311110952869 29.293576657772064,41.30773212434724 28.015197752043605,42.346197622362524 25.778034664690495,49.615449770353734 25.778034664690495,52.38468576781452 27.376008298248053,56.884690833278 27.0564135722816,59.307768722996116 26.417224118486047,60.69238410703838 27.695603024214506,64.84622784843668 28.015197752043605,70.73083361843601 27.0564135722816,72.1154456846416 26.097629390656948,74.53851583320647 26.7368188444525,76.2692794711329 33.12871337682009,84.23078411165625 37.283444825559855,84.92308823438361 40.15979736484587,84.23078411165625 45.91250244341791,83.53847988788038 46.55169189721346,82.50002336408943 50.70642334409058,79.73080486152321 51.98480224981904,76.96158475009724 52.62399170361459,76.96158475009724 54.22196533717215,73.8462102022022 54.54156006500125,72.46159863844514 54.22196533717215,71.42313970159739 54.54156006500125,69.3462211494334 53.263181157410145,65.53853478655219 54.22196533717215,61.03853789111599 53.263181157410145,59.65392260719091 52.943586429581046,57.57699892669916 53.9023706112057,53.42314885230735 52.943586429581046,47.192366952076554 53.263181157410145,46.15390251157805 52.304396975785494,41.653887316118926 51.66520752385259,41.30773212434724 50.067233892157674,38.884645083453506 48.14966553077102,36.807712354231626 44.31452880986035,34.730778720229864 40.479392090812325,35.07693438837305 35.3658764641732,36.46155681181699 30.252360839396715,38.53848969191313 29.613171383738518,40.96157690836117 28.33479247801006,42.69235273823142 26.417224118486047,47.53852171637118 27.376008298248053,54.461611710488796 27.0564135722816,55.15392015641555 27.0564135722816,59.307768722996116 26.097629390656948,64.15392080927268 27.0564135722816,74.53851583320647 28.97398193180561,79.73080486152321 33.76790283061564,84.23078411165625 40.15979736484587,84.57693618535995 45.273312991485,82.50002336408943 50.38682861812413,79.38465243577957 52.304396975785494,76.61543212318793 53.263181157410145,69.00006796978414 52.943586429581046,63.11546006239951 53.5827758833766,62.07699909014627 52.943586429581046,58.61546088010073 53.263181157410145,55.50007434282452 53.263181157410145,43.73081793356687 51.026018070057034,40.96157690836117 50.067233892157674,38.19233427522704 44.63412353768945,35.07693438837305 41.75777099840343,34.38462302600965 37.92263427749276,34.38462302600965 33.448308104649186,35.76924565061927 28.015197752043605,39.92311110952869 26.097629390656948,44.07697294885293 25.778034664690495,47.192366952076554 25.138845210894942,48.57698585651815 25.778034664690495,49.26929515739903 25.45843993872404,51.69237691909075 26.417224118486047,58.9616148150526 26.417224118486047,60.69238410703838 25.778034664690495,61.38469164958224 26.417224118486047,64.15392080927268 26.097629390656948,72.1154456846416 26.417224118486047,75.57697409112006 29.293576657772064,80.7692619888112 31.850334471091628,83.88463201234117 36.00506591796875,86.6538481018506 38.561823731288314,87.0 43.67533935792744,85.6153922569938 49.10844971053302,81.8077188897878 52.304396975785494,78.34619500720873 54.86115478910506,74.53851583320647 55.180749516934156,60.00007646577433 54.54156006500125,57.92315293708816 54.86115478910506,55.50007434282452 53.9023706112057,54.461611710488796 54.22196533717215,49.26929515739903 53.5827758833766,42.346197622362524 50.067233892157674,36.807712354231626 46.232097171247005,34.38462302600965 36.6442553717643,34.038467307109386 32.48952392488718,34.730778720229864 28.33479247801006,37.153867872431874 27.376008298248053,40.615421667695045 26.417224118486047,42.346197622362524 25.45843993872404,48.230831168126315 28.015197752043605,63.80776725290343 27.695603024214506,76.61543212318793 28.654387203976512,77.30773735232651 29.613171383738518,78.69234750885516 29.613171383738518,79.73080486152321 31.211145017296076,82.15387113951147 36.32466064579785,85.26924025872722 39.20101318322122,85.6153922569938 43.994934083893895,82.84617556352168 46.87128662317991,82.50002336408943 48.46926025673747,81.11541431443766 49.747639164328575,76.61543212318793 51.026018070057034,75.92312679393217 51.66520752385259,74.88466861145571 51.66520752385259,70.38468053843826 50.38682861812413,68.65391476405784 50.70642334409058,67.61545499740168 50.38682861812413,66.5769950048998 51.34561279602349,65.88468821812421 51.34561279602349,63.80776725290343 50.70642334409058,60.00007646577433 51.66520752385259,57.23084489163011 52.943586429581046,45.46159275714308 51.98480224981904,42.00004248134792 50.067233892157674,38.884645083453506 44.31452880986035,35.42309003230184 36.00506591796875,35.07693438837305 33.448308104649186,36.46155681181699 31.850334471091628,38.884645083453506 27.376008298248053,42.69235273823142 26.7368188444525,47.53852171637118 27.376008298248053,55.84622850222513 26.097629390656948,61.38469164958224 27.0564135722816,62.76930643059313 27.376008298248053,67.26930169202387 27.0564135722816,68.65391476405784 25.778034664690495,70.38468053843826 25.138845210894942,73.15390447061509 28.97398193180561,79.73080486152321 30.571955563500524,81.11541431443766 37.92263427749276,84.57693618535995 43.35574463009834,83.53847988788038 45.59290771745145,81.8077188897878 48.14966553077102,81.11541431443766 51.98480224981904,76.61543212318793 53.9023706112057,73.50005734851584 54.22196533717215,71.42313970159739 53.9023706112057,69.00006796978414 54.54156006500125,58.61546088010073 53.9023706112057,55.15392015641555 54.22196533717215,49.96160435816273 52.943586429581046,43.38466289360076 53.263181157410145,41.653887316118926 49.428044436499476,36.807712354231626 47.510476076975465,35.42309003230184 43.994934083893895,34.38462302600965 36.963850097730756,34.038467307109386 31.850334471091628,35.42309003230184 29.293576657772064,37.84617883199826 26.417224118486047,43.038507828488946 26.417224118486047,43.73081793356687 25.45843993872404,46.50005735037848 25.778034664690495,53.76930316258222 26.7368188444525,57.92315293708816 26.417224118486047,60.34623029921204 27.376008298248053,67.26930169202387 28.33479247801006,69.69237430393696 27.376008298248053,75.57697409112006 28.654387203976512,79.0384999839589 30.571955563500524,81.11541431443766 35.6854711920023,83.53847988788038 38.561823731288314,84.23078411165625 43.03614990413189,84.57693618535995 43.994934083893895,84.23078411165625 45.91250244341791,82.84617556352168 48.46926025673747,82.84617556352168 52.62399170361459,78.69234750885516 53.5827758833766,77.30773735232651 54.54156006500125,71.42313970159739 54.22196533717215,69.3462211494334 51.98480224981904,65.53853478655219 52.943586429581046,64.50007434142753 53.9023706112057,61.73084538243711 52.943586429581046,56.19238263787702 53.5827758833766,53.07699451548979 52.943586429581046,49.26929515739903 53.9023706112057,45.80774764670059 53.5827758833766,42.69235273823142 51.026018070057034,37.50002336502075 48.78885498456657,35.76924565061927 46.232097171247005,35.07693438837305 39.52060791105032,34.38462302600965 34.726687010377645,34.730778720229864 31.530739745125175,36.807712354231626 28.97398193180561,40.26926640048623 28.015197752043605,42.69235273823142 28.015197752043605,44.76928290305659 26.7368188444525,48.230831168126315 27.695603024214506,51.69237691909075 26.7368188444525,54.461611710488796 27.376008298248053,56.884690833278 26.7368188444525,59.65392260719091 26.417224118486047,65.88468821812421 27.0564135722816,68.30776153411716 27.695603024214506,75.23082136409357 28.97398193180561,76.61543212318793 29.613171383738518,78.0000424804166 33.76790283061564,82.84617556352168 38.24222900532186,84.57693618535995 46.87128662317991,82.50002336408943 50.70642334409058,78.0000424804166 53.9023706112057,71.76929270569235 54.54156006500125,70.0385274332948 53.9023706112057,67.26930169202387 53.9023706112057,64.15392080927268 53.263181157410145,62.42315277364105 53.9023706112057,55.15392015641555 53.263181157410145,53.76930316258222 53.5827758833766,52.03853135649115 52.943586429581046,49.96160435816273 54.22196533717215,44.07697294885293 53.5827758833766,41.653887316118926 52.304396975785494,39.57695579295978 47.510476076975465,35.76924565061927 43.67533935792744,34.038467307109386 39.52060791105032,34.038467307109386 36.32466064579785,34.730778720229864 33.448308104649186,36.46155681181699 31.530739745125175,38.19233427522704 28.654387203976512,42.00004248134792 28.015197752043605,45.46159275714308 26.7368188444525,47.192366952076554 26.417224118486047,48.92314051929861 29.613171383738518,65.19238133030012 29.293576657772064,66.5769950048998 29.613171383738518,69.69237430393696 28.33479247801006,75.23082136409357 28.654387203976512,77.65388992894441 29.932766111567616,79.73080486152321 34.08749755658209,83.88463201234117 36.963850097730756,84.57693618535995 39.84020263701677,84.92308823438361 45.59290771745145,83.53847988788038 47.19088135100901,82.84617556352168 51.34561279602349,79.0384999839589 53.9023706112057,74.88466861145571 54.54156006500125,71.42313970159739 53.9023706112057,61.73084538243711 54.22196533717215,57.92315293708816 53.5827758833766,55.15392015641555 54.22196533717215,53.76930316258222 53.5827758833766,50.307758919894695 53.9023706112057,43.38466289360076 51.34561279602349,38.884645083453506 49.10844971053302,36.807712354231626 45.59290771745145,36.11540124332532 43.35574463009834,34.730778720229864 38.24222900532186,34.38462302600965 35.046281738206744,34.730778720229864 30.571955563500524,37.50002336502075 28.015197752043605,41.30773212434724 27.376008298248053,43.038507828488946 25.138845210894942,46.50005735037848 25.138845210894942,49.26929515739903 24.81925048492849,50.65391345741227 26.097629390656948,58.9616148150526 27.0564135722816,60.69238410703838 27.0564135722816,63.11546006239951 28.015197752043605,66.5769950048998 28.015197752043605,68.30776153411716 27.0564135722816,69.69237430393696 29.932766111567616,78.34619500720873 33.12871337682009,81.8077188897878 36.6442553717643,83.53847988788038 39.52060791105032,83.88463201234117 41.43817627057433,83.88463201234117 49.747639164328575,80.07695726212114 51.98480224981904,77.30773735232651 53.9023706112057,73.8462102022022 54.22196533717215,69.00006796978414 53.5827758833766,66.5769950048998 54.54156006500125,63.80776725290343 54.54156006500125,59.65392260719091 53.5827758833766,57.92315293708816 52.943586429581046,51.69237691909075 52.62399170361459,50.65391345741227 52.943586429581046,45.11543784337118 51.026018070057034,41.653887316118926 49.428044436499476,40.96157690836117 45.91250244341791,37.153867872431874 38.24222900532186,34.730778720229864 34.726687010377645,35.76924565061927 29.613171383738518,39.23080045171082 26.417224118486047,43.038507828488946 25.778034664690495,45.46159275714308 26.7368188444525,53.42314885230735 26.417224118486047,54.80776594532654 27.695603024214506,57.57699892669916 27.0564135722816,59.307768722996116 27.695603024214506,66.92314836150035 26.097629390656948,71.76929270569235 26.097629390656948,74.53851583320647 27.695603024214506,78.0000424804166 30.891550291329622,84.23078411165625 32.80911865271628,85.26924025872722 36.6442553717643,85.96154423058033 43.67533935792744,84.23078411165625 48.14966553077102,81.46156661398709 51.66520752385259,78.34619500720873 54.54156006500125,71.42313970159739 53.9023706112057,66.23084162408486 54.54156006500125,62.76930643059313 53.9023706112057,61.73084538243711 53.9023706112057,58.9616148150526 54.54156006500125,47.88467645458877 53.9023706112057,43.38466289360076 51.34561279602349,38.19233427522704 49.10844971053302,36.11540124332532 43.994934083893895,33.0 39.52060791105032,33.0 32.80911865271628,34.730778720229864 30.571955563500524,36.46155681181699 28.015197752043605,39.23080045171082 26.417224118486047,43.38466289360076 25.778034664690495,47.88467645458877 26.7368188444525,49.96160435816273 27.695603024214506,56.884690833278 27.0564135722816,62.42315277364105 26.7368188444525,74.88466861145571 27.376008298248053,76.61543212318793 30.252360839396715,81.46156661398709 32.48952392488718,82.84617556352168 33.76790283061564,84.57693618535995 37.283444825559855,86.30769617808983 41.43817627057433,85.96154423058033 47.510476076975465,83.88463201234117 51.98480224981904,79.73080486152321 53.263181157410145,76.96158475009724 54.54156006500125,73.15390447061509 53.9023706112057,66.23084162408486 54.54156006500125,62.76930643059313 53.5827758833766,61.38469164958224 53.5827758833766,57.23084489163011" stroke="#4dd2ff" stroke-linecap="round" stroke-linejoin="round" stroke-width="0.5"><title>2023-04-22 5.2km</title></polyline><polyline fill="none" points="172.30641615204513,58.63298863964155 171.35976875573397,51.113993108738214 171.9908670205623,46.67094464832917 171.67531788907945,43.253212209325284 169.46647396311164,39.151930005755275 167.8887283038348,37.44306136621162 164.1021387167275,35.734192105941474 160.31554913148284,35.050644227769226 154.32011562213302,37.44306136621162 153.05791909247637,38.46838262397796 151.48017343133688,40.5190244698897 150.8490751683712,45.30385197000578 149.27132950909436,49.40512881241739 149.58687863871455,51.45576589368284 148.95578037574887,55.21526488708332 148.0091329794377,56.92412707488984 148.0091329794377,61.02539379056543 147.37803471460938,62.73425386706367 148.32468211092055,66.15197215974331 148.6402312424034,73.67094366718084 149.27132950909436,75.72157017467543 148.95578037574887,78.79750826209784 150.21797690354288,81.53167376248166 153.05791909247637,83.92406727327034 157.7911560740322,86.3164595682174 161.5777456611395,87.0 164.73323698155582,85.97468931414187 169.46647396311164,82.21521489042789 172.62196528539062,77.772195789963 174.1997109465301,70.59500222979113 172.93751441687346,64.44311332283542 173.25306355021894,63.07602580776438 172.93751441687346,61.36716585513204 173.88416181318462,59.65830528177321 172.30641615204513,59.65830528177321 171.67531788907945,57.94944408815354 173.25306355021894,56.240582273341715 173.56861268170178,48.03803692897782 172.93751441687346,44.27853220142424 171.04421962238848,40.17725089145824 168.83537570014596,36.075966007541865 166.94208090752363,34.02532222587615 163.15549132041633,33.68354817526415 157.7911560740322,35.734192105941474 156.84450867772102,37.10128756379709 154.9512138850987,38.12660889653489 151.79572256468236,41.202571554109454 149.90242777206004,47.35449083801359 148.32468211092055,49.40512881241739 148.6402312424034,52.822856784332544 147.37803471460938,60.34184958646074 148.32468211092055,65.12665693229064 147.69358384795487,67.519058781676 147.37803471460938,75.03802810516208 146.74693644978106,76.7468830938451 147.69358384795487,77.4304249160923 150.21797690354288,82.21521489042789 151.16462429985404,83.58229684643447 157.1600578110665,86.3164595682174 161.262196527794,86.3164595682174 169.78202309645712,81.8734443387948 173.25306355021894,77.08865401754156 173.56861268170178,74.35448593553156 174.51526007801294,71.96208756091073 173.88416181318462,66.15197215974331 174.1997109465301,63.417797724250704 173.56861268170178,61.36716585513204 173.88416181318462,59.65830528177321 173.25306355021894,54.53171983920038 173.56861268170178,52.139311388134956 172.62196528539062,46.67094464832917 170.7286704927683,42.22789199324325 167.5731791704893,37.78483514348045 162.52439305745065,35.734192105941474 154.00456648878753,36.7595137367025 150.53352603502572,38.8101563276723 148.95578037574887,40.860798025503755 147.69358384795487,43.253212209325284 146.43138731829822,51.113993108738214 147.69358384795487,63.07602580776438 148.6402312424034,65.8102004416287 148.0091329794377,71.96208756091073 148.95578037574887,76.40511214639992 149.58687863871455,77.4304249160923 149.27132950909436,80.16459121042863 151.79572256468236,83.24052639491856 154.9512138850987,84.94937840569764 158.4222543388605,85.97468931414187 162.8399421889335,85.97468931414187 167.5731791704893,83.92406727327034 170.7286704927683,81.18990316195413 171.9908670205623,79.48104978632182 173.88416181318462,73.32917249528691 173.56861268170178,64.44311332283542 172.93751441687346,62.39248190121725 173.88416181318462,54.873492375947535 173.25306355021894,45.98739835852757 171.9908670205623,43.253212209325284 170.09757222793996,39.835477287881076 168.20427743531764,37.44306136621162 165.99543350934982,36.075966007541865 161.89329479262233,34.70887025259435 159.36890173517168,35.734192105941474 156.21341041475534,35.734192105941474 151.79572256468236,38.8101563276723 149.27132950909436,41.88611853774637 147.37803471460938,45.64562517730519 147.06248558312654,48.72158291982487 146.43138731829822,50.08867460535839 146.74693644978106,54.53171983920038 146.11583818495274,58.97476087883115 147.06248558312654,67.519058781676 146.43138731829822,70.93677359912544 147.37803471460938,77.4304249160923 149.27132950909436,80.84813253674656 150.21797690354288,81.18990316195413 154.32011562213302,84.94937840569764 159.68445086665452,86.65822979621589 166.94208090752363,85.63291903631762 169.1509248316288,82.89875591825694 170.7286704927683,82.21521489042789 172.93751441687346,77.772195789963 173.56861268170178,73.67094366718084 172.93751441687346,63.417797724250704 173.56861268170178,51.45576589368284 172.93751441687346,49.40512881241739 173.25306355021894,44.27853220142424 171.67531788907945,42.22789199324325 171.67531788907945,40.5190244698897 170.09757222793996,38.12660889653489 167.25763003900647,35.734192105941474 165.67988437786698,35.050644227769226 158.10670520737767,35.734192105941474 155.26676301844418,36.41773988492787 154.32011562213302,37.44306136621162 152.11127169802785,38.12660889653489 151.16462429985404,39.151930005755275 147.69358384795487,48.72158291982487 148.32468211092055,52.822856784332544 147.37803471460938,55.898809836711735 148.32468211092055,60.00007744599134 147.37803471460938,72.64563007745892 149.58687863871455,76.0633411728777 151.16462429985404,80.50636188639328 153.05791909247637,82.5569854164496 155.26676301844418,83.24052639491856 156.52895954623818,84.60760805290192 164.73323698155582,83.24052639491856 168.51982656680048,81.53167376248166 171.35976875573397,78.79750826209784 173.25306355021894,71.6203162651509 171.9908670205623,68.88614500593394 172.62196528539062,67.86083037452772 172.62196528539062,66.49374385224655 172.30641615204513,61.70893789501861 173.25306355021894,58.97476087883115 172.93751441687346,51.45576589368284 173.25306355021894,50.08867460535839 172.30641615204513,44.6203054827638 170.7286704927683,40.860798025503755 168.83537570014596,37.44306136621162 165.67988437786698,35.392418179661036 163.78658958524466,34.70887025259435 160.31554913148284,34.36709625180811 155.58231214992702,36.41773988492787 154.9512138850987,37.44306136621162 151.48017343133688,39.49370365869254 148.0091329794377,48.72158291982487 148.0091329794377,51.45576589368284 147.69358384795487,53.16462944447994 147.37803471460938,56.240582273341715 148.32468211092055,57.6076717749238 148.0091329794377,63.417797724250704 148.6402312424034,65.8102004416287 148.32468211092055,71.6203162651509 149.27132950909436,78.11396663822234 153.6890173573047,83.92406727327034 156.21341041475534,84.60760805290192 160.31554913148284,84.94937840569764 163.15549132041633,86.3164595682174 168.20427743531764,83.92406727327034 170.7286704927683,80.84813253674656 172.93751441687346,72.30385883152485 172.30641615204513,64.78488514013588 172.93751441687346,52.822856784332544 171.9908670205623,49.746901721227914 171.67531788907945,45.64562517730519 169.78202309645712,40.5190244698897 169.78202309645712,39.151930005755275 167.25763003900647,37.44306136621162 166.3109826426953,36.075966007541865 164.1021387167275,35.050644227769226 158.10670520737767,34.36709625180811 151.16462429985404,36.41773988492787 147.37803471460938,45.98739835852757 146.43138731829822,50.08867460535839 146.11583818495274,55.898809836711735 147.06248558312654,59.65830528177321 148.0091329794377,61.02539379056543 147.37803471460938,62.73425386706367 148.6402312424034,69.2279165009968 148.32468211092055,71.6203162651509 150.21797690354288,80.84813253674656 151.48017343133688,82.5569854164496 155.89786128140986,85.29114873334765 161.5777456611395,85.97468931414187 165.04878611303866,85.29114873334765 166.94208090752363,83.58229684643447 169.46647396311164,82.21521489042789 172.30641615204513,76.7468830938451 173.56861268170178,72.30385883152485 172.93751441687346,69.56968796998262 173.25306355021894,65.8102004416287 171.9908670205623,61.36716585513204 172.93751441687346,58.63298863964155 171.67531788907945,51.45576589368284 172.30641615204513,45.98739835852757 171.9908670205623,44.6203054827638 168.20427743531764,38.12660889653489 164.73323698155582,36.41773988492787 159.05335260368884,36.075966007541865 156.21341041475534,36.075966007541865 149.27132950909436,38.12660889653489 148.32468211092055,39.49370365869254 146.43138731829822,44.6203054827638 145.48473992198706,53.84817469166592 145.48473992198706,56.92412707488984 146.43138731829822,58.63298863964155 147.69358384795487,66.83551552006975 148.32468211092055,68.54437348758802 148.32468211092055,75.03802810516208 150.8490751683712,81.8734443387948 155.89786128140986,85.97468931414187 160.94664739631116,86.65822979621589 167.5731791704893,83.92406727327034 169.78202309645712,82.5569854164496 172.30641615204513,78.79750826209784 171.9908670205623,77.772195789963 172.93751441687346,75.37979915225878 171.04421962238848,63.417797724250704 170.09757222793996,62.05070991022512 169.46647396311164,54.18994727823883 169.78202309645712,52.822856784332544 170.09757222793996,45.30385197000578 168.83537570014596,42.22789199324325 161.262196527794,34.36709625180811 153.05791909247637,38.12660889653489 150.21797690354288,39.835477287881076 148.0091329794377,42.22789199324325 146.43138731829822,44.96207873849198 146.11583818495274,47.35449083801359 147.06248558312654,51.45576589368284 146.43138731829822,55.21526488708332 148.0091329794377,61.36716585513204 148.32468211092055,69.2279165009968 148.0091329794377,73.32917249528691 148.6402312424034,76.7468830938451 150.53352603502572,80.84813253674656 152.11127169802785,82.21521489042789 154.63566475361586,83.92406727327034 157.7911560740322,84.26583767542616 160.31554913148284,85.63291903631762 164.41768785007298,84.94937840569764 167.8887283038348,83.24052639491856 171.04421962238848,78.4557374631986 172.62196528539062,74.69625703198835 172.30641615204513,73.32917249528691 172.62196528539062,71.27854494424537 171.67531788907945,64.10134148178622 172.30641615204513,60.68362169992179 171.35976875573397,57.26589943654835 171.67531788907945,53.84817469166592 171.35976875573397,41.88611853774637 170.09757222793996,39.49370365869254 164.41768785007298,35.392418179661036 163.15549132041633,33.68354817526415 160.94664739631116,33.0 152.11127169802785,36.41773988492787 150.21797690354288,44.6203054827638 148.6402312424034,47.69626389676705 148.0091329794377,51.79753865301609 148.6402312424034,52.481084099039435 148.6402312424034,53.506402080878615 149.58687863871455,55.21526488708332 149.90242777206004,56.240582273341715 148.95578037574887,61.36716585513204 149.90242777206004,65.8102004416287 148.95578037574887,68.54437348758802 148.95578037574887,73.32917249528691 150.21797690354288,75.72157017467543 151.16462429985404,81.18990316195413 153.37346822582185,82.89875591825694 153.6890173573047,83.58229684643447 156.21341041475534,84.94937840569764 157.475606944412,84.94937840569764 158.10670520737767,85.63291903631762 160.31554913148284,85.97468931414187 167.5731791704893,83.92406727327034 168.83537570014596,83.24052639491856 171.04421962238848,79.48104978632182 172.93751441687346,75.03802810516208 172.93751441687346,64.10134148178622 172.30641615204513,62.73425386706367 172.93751441687346,58.97476087883115 171.67531788907945,47.0127177555114 172.30641615204513,45.64562517730519 170.7286704927683,41.54434505896643 164.73323698155582,35.050644227769226 156.52895954623818,36.41773988492787 147.37803471460938,40.860798025503755 146.11583818495274,43.253212209325284 145.48473992198706,50.43044746434316 146.74693644978106,55.21526488708332 146.74693644978106,58.97476087883115 147.69358384795487,60.68362169992179 147.37803471460938,61.70893789501861 148.0091329794377,64.44311332283542 147.37803471460938,71.27854494424537 147.69358384795487,72.64563007745892 147.06248558312654,75.37979915225878 147.37803471460938,77.4304249160923 150.53352603502572,82.5569854164496 156.21341041475534,85.29114873334765 159.36890173517168,84.60760805290192 163.47104045376182,85.97468931414187 165.36433524638414,84.94937840569764 169.1509248316288,82.21521489042789 172.62196528539062,76.7468830938451 172.62196528539062,67.1772871632129 171.9908670205623,65.8102004416287 171.67531788907945,59.65830528177321 171.9908670205623,55.898809836711735 171.04421962238848,53.506402080878615 171.35976875573397,45.64562517730519 170.7286704927683,43.59498556423932 170.09757222793996,43.59498556423932 169.1509248316288,42.22789199324325 168.83537570014596,39.835477287881076 167.5731791704893,38.46838262397796 159.68445086665452,36.7595137367025 153.37346822582185,36.7595137367025 150.53352603502572,38.12660889653489 148.95578037574887,37.44306136621162 146.74693644978106,42.22789199324325 145.8002890534699,48.03803692897782 146.74693644978106,50.77222029911354 146.74693644978106,53.16462944447994 148.6402312424034,62.05070991022512 148.32468211092055,65.4684286992997 148.6402312424034,72.64563007745892 150.53352603502572,80.16459121042863 152.11127169802785,82.89875591825694 154.63566475361586,84.60760805290192 156.52895954623818,84.60760805290192 158.73780347034335,85.63291903631762 164.73323698155582,85.29114873334765 168.83537570014596,82.5569854164496 171.9908670205623,79.13927903631702 173.56861268170178,73.67094366718084 171.67531788907945,64.44311332283542 171.9908670205623,60.00007744599134 171.04421962238848,56.92412707488984 171.04421962238848,51.45576589368284" stroke="#4dd2ff" stroke-linecap="round" stroke-linejoin="round" stroke-width="0.5"><title>2023-04-20 5.2km</title></polyline><polyline fill="none" points="65.66701680677943,135.0900900848501 66.14915966393892,135.3237705063366 66.23424369760323,135.3237705063366 66.23424369760323,134.98994127844344 66.34768907574471,134.82302652890212 66.34768907574471,134.7896435681905 66.14915966393892,134.6561116889352 66.00735294132028,134.6561116889352 65.86554621870164,134.55596274146228 65.89390756306238,134.38904775679111 65.86554621870164,134.08860055642435 66.03571428568102,133.85491919805645 66.20588235300966,133.75476999019156 66.20588235300966,133.8883022600494 66.34768907574471,133.75476999019156 66.48949579847977,133.78815306315664 66.6313025210984,133.55447147678933 66.57457983214408,132.3526776615763 66.46113445388619,131.85192885482684 66.54621848743409,131.68501240506885 66.65966386569198,131.58486249181442 66.71638655476272,131.45132922343328 66.77310924383346,131.0841124370054 66.74474789923988,130.78366201347671 66.65966386569198,130.516594724264 66.71638655476272,130.41644443114637 66.71638655476272,130.14937682362506 67.0,129.38155616237782 66.82983193302061,128.88080252616783 66.6313025210984,128.6471172173915 66.48949579847977,128.6471172173915 66.0924369749846,128.7806517012068 66.00735294132028,128.7806517012068 65.83718487410806,128.6471172173915 65.75210084044375,128.14636238728417 65.6102941178251,127.81252538165427 65.52521008416079,127.47868801423465 65.6102941178251,127.27838542021345 65.58193277323153,126.87777984136483 65.6102941178251,126.6774768565374 65.63865546230227,126.7776283651765 65.58193277323153,126.81101219414268 65.4117647059029,126.74424453260144 65.18487394973636,126.7776283651765 64.6743697480997,126.71086069641751 64.07878151279874,126.61070916597964 63.596638655639254,126.31025437940843 63.256302521098405,126.14333492692094 62.6039915967267,126.17671882471768 62.40546218492091,126.07656712064636 61.951680672354996,126.07656712064636 61.66806722711772,125.97641538409516 60.845588235300966,126.10995102560264 60.53361344547011,126.00979929987807 60.335084033664316,126.00979929987807 59.82457983191125,126.17671882471768 59.370798319461755,126.17671882471768 58.83193277323153,126.07656712064636 57.13025210087653,126.24348660928081 56.64810924360063,126.0431832121103 56.50630252098199,126.17671882471768 56.052521008532494,126.21010271884734 55.712184873991646,126.00979929987807 55.54201680677943,126.0431832121103 55.23004201683216,125.94303146458697 54.435924369841814,126.07656712064636 52.42226890765596,126.07656712064636 52.308823529514484,126.10995102560264 51.514705882407725,126.21010271884734 51.03256302524824,126.21010271884734 50.6071428572759,126.10995102560264 50.43697479006369,126.14333492692094 50.210084033664316,126.00979929987807 49.78466386545915,125.84287968458375 49.13235294132028,125.87626361486036 48.82037815125659,125.64257602684665 48.73529411770869,125.47565621259855 48.82037815125659,125.14181631276733 48.76365546218585,124.90812816756079 48.65021008416079,124.64105578456656 48.53676470601931,124.50751950623817 48.33823529421352,124.37398317002226 48.1680672270013,124.44075134536251 47.99789915967267,124.7412079553178 47.06197478994727,126.71086069641751 46.26785714295693,128.11297870299313 46.12605042033829,128.48019903106615 45.89915966405533,128.84741892147576 45.84243697475176,129.11448765773093 45.67226890753955,129.3481726119644 45.41701680677943,129.4817067918775 45.27521008416079,129.68200795337907 44.84978991607204,130.01584293312044 44.396008403389715,130.2495272035885 42.52415966393892,130.516594724264 41.10609243705403,130.61674498481443 39.85819327738136,130.91719557123724 39.51785714295693,131.0841124370054 39.23424369748682,131.35117923421785 39.120798319461755,131.61824579982203 39.0640756302746,131.95207868123543 39.0640756302746,132.953575155203 38.86554621858522,133.58785457134945 38.29831932776142,134.35566474901862 37.98634453781415,134.6894946641114 37.33403361344244,135.6242165020085 36.99369747901801,135.95804504258558 36.823529411805794,136.22510761462036 36.28466386569198,136.75923206395237 35.377100840443745,137.49365166999632 34.75315126043279,138.06115652999142 34.554621848859824,138.16130433799117 33.051470588194206,139.39645795928664 32.48424369760323,139.69689998336253 31.54831932776142,139.7970472596062 30.92436974798329,139.73028241246357 30.38550420163665,139.76366483786842 29.279411764699034,139.69689998336253 27.37920168065466,139.69689998336253 25.790966386557557,139.56337023110245 25.02521008416079,139.59675267455168 24.486344537814148,139.4632228789269 23.777310924371704,139.56337023110245 23.635504201753065,139.4632228789269 22.529411764699034,139.49660533334827 22.018907563062385,139.4632228789269 18.360294117592275,139.39645795928664 17.055672268848866,139.29631055294885 15.49579831934534,139.29631055294885 14.67331932776142,138.96248562962865 14.276260504266247,138.56189524426009 14.191176470601931,138.39498242994887 14.021008403389715,137.79409554967424 13.907563025131822,136.95952849381138 13.283613445353694,134.956558335718 13.14180672261864,134.08860055642435 13.0,132.9869583148975 13.14180672261864,131.71839570222073 13.36869747901801,130.88381218718132 13.36869747901801,130.75027861492708 13.822478991467506,129.98245945139206 14.644957983167842,129.0811040783883 15.21218487387523,128.51358267554315 15.949579831911251,127.9460602273175 16.545168067212217,127.71237420945545 18.190126050496474,127.61222300468944 18.643907563062385,127.47868801423465 19.239495798246935,126.87777984136483 19.523109243717045,126.54394146089908 19.891806722735055,125.74272787204245 20.20378151256591,125.20858432160458 20.7710084032733,124.67443984508282 21.30987394961994,124.47413542767754 21.42331932776142,124.3405990768515 22.07563025201671,124.3405990768515 22.727941176504828,124.17367855724297 23.40861344547011,124.10691032386967 23.862394957919605,123.97337381407851 24.543067227001302,123.5727639371762 24.96848739485722,123.13876931587583 25.223739495733753,122.73815835348796 25.507352941203862,122.03708791572717 25.62079831934534,121.60309113093535 25.649159663938917,121.33601588234887 25.59243697486818,120.66832674818579 25.25210084032733,119.39971340590273 25.11029411770869,118.46494233686826 25.05357142863795,116.86247104714857 25.081932773115113,115.69399714277824 25.05357142863795,115.3935317080759 25.11029411770869,114.95952556273551 25.138655462185852,114.52551880592364 25.11029411770869,114.09151143749477 24.996848739450797,113.7910444396257 24.486344537814148,112.78948566308827 23.862394957919605,111.78792362989043 22.75630252098199,110.81974390198593 22.642857142840512,110.78635833997396 22.415966386557557,110.45250251953257 22.1890756302746,109.91833245419548 22.1039915967267,109.48431859398261 22.07563025201671,109.01691836834652 22.132352941320278,108.38258835606393 22.1890756302746,108.08211578911869 22.387605042080395,107.61471343558514 22.841386554646306,106.94699455722002 23.125,106.61313457516371 23.80567226896528,106.17911605752306 25.138655462185852,105.67832470030407 25.649159663938917,105.44462178827962 26.017857142840512,105.17753252875991 26.81197478994727,104.40964961750433 27.237394957919605,103.94224169079098 27.776260504266247,103.10758291446837 27.97478991607204,102.64017301163403 28.144957983167842,102.40646779429517 28.31512605038006,101.60519141698023 28.48529411770869,101.23793904733611 28.91071428579744,100.97084613985498 29.619747899239883,100.7371396557719 30.952731092460454,100.57020634427317 33.02310924383346,100.20295274039381 33.817226890823804,100.26972615547129 34.1008403361775,100.43665962983505 34.38445378153119,100.70375300067826 35.32037815125659,102.5734001105593 35.433823529514484,102.97403730032966 35.63235294120386,103.20774208710645 35.830882353009656,103.608378451725 36.42647058831062,104.10917317471467 37.10714285715949,104.47642212055507 37.589285714318976,104.57658084807917 38.893907563062385,104.64335331495386 39.85819327738136,104.81028441875242 40.99264705891255,105.34446334303357 41.64495798316784,105.54478020072565 41.7867647059029,105.51139406685252 41.92857142863795,105.27769102816819 42.070378151373006,104.34287710004719 42.070378151373006,103.50821940938476 42.29726890765596,102.74033233628143 42.29726890765596,102.64017301163403 42.41071428579744,102.10598939715419 42.495798319461755,102.07260289040278 42.60924369748682,102.10598939715419 43.148109243717045,102.5734001105593 44.36764705879614,103.4414466964954 44.707983193336986,103.7419237907452 44.991596638807096,103.90885538319708 45.75735294120386,104.54319460917031 46.948529411805794,105.81186914187856 47.88445378153119,107.01376651009195 48.11134453793056,107.14731037267484 48.33823529421352,107.38101199275116 48.53676470601931,107.78164292892325 48.877100840443745,108.31581669990555 48.96218487410806,108.58290323792608 49.1039915967267,108.74983220663853 49.24579831934534,109.15046136235469 49.58613445388619,109.6178613853699 49.52941176458262,109.88494679445284 49.95483193278778,110.81974390198593 50.266806722735055,111.75453817265225 50.43697479006369,112.08839258181979 50.43697479006369,112.2219342441822 50.635504201753065,112.88964168730308 50.6071428572759,113.02318300219486 50.77731092448812,113.49057714856463 50.919117646990344,114.52551880592364 51.060924369841814,115.32676157166134 51.174369747866876,116.89585595071549 51.11764705891255,117.3298593678046 51.14600840350613,118.39817286614561 51.060924369841814,118.8989435430849 51.004201680771075,119.53325189845054 50.8907563026296,120.26771257296787 50.86239495803602,120.60155775514431 50.77731092448812,121.03555595100624 50.52205882349517,121.90355050857761 50.46533613454085,122.37093118036864 50.18172268930357,123.07200085831573 49.95483193278778,123.83983724628342 49.699579832027666,124.40736725955503 49.756302521098405,124.50751950623817 50.35189075639937,124.67443984508282 50.6071428572759,125.04166427219752 51.42962184874341,125.40888826159062 52.36554621858522,125.30873630792485 52.64915966393892,125.37550428067334 52.847689075861126,125.30873630792485 53.30147058831062,125.30873630792485 53.67016806732863,125.27535231606453 53.84033613442443,125.17520031900494 53.953781512682326,125.30873630792485 54.15231092448812,125.37550428067334 54.46428571443539,125.34212029608898 55.00315126066562,125.40888826159062 55.79726890765596,125.27535231606453 56.30777310940903,125.40888826159062 56.591386554646306,125.30873630792485 56.90336134447716,125.30873630792485 57.13025210087653,125.20858432160458 57.215336134657264,125.24196832059533 57.78256302524824,125.14181631276733 57.92436974798329,125.17520031900494 58.00945378164761,125.14181631276733 58.633403361425735,125.24196832059533 59.2289915967267,125.24196832059533 59.88130252121482,125.34212029608898 59.966386554879136,125.27535231606453 60.39180672285147,125.17520031900494 60.90231092448812,125.24196832059533 61.129201680771075,125.14181631276733 61.554621848859824,125.14181631276733 61.89495798340067,125.17520031900494 62.093487394973636,125.27535231606453 62.40546218492091,125.20858432160458 62.68907563039102,125.20858432160458 62.77415966405533,125.10843230286264 62.88760504219681,125.07504828937817 63.56827731104568,125.17520031900494 63.625,125.27535231606453 63.82352941192221,125.34212029608898" stroke="#4dd2ff" stroke-linecap="round" stroke-linejoin="round" stroke-width="0.5"><title>2022-11-25 6.1km</title></polyline><polyline fill="none" points="181.81380368722603,126.47716766429949 182.24000589060597,125.92987843544688 181.85254934197292,126.20352313879994 181.5813297580462,126.75081201191642 181.65882106753998,126.8876341189025 181.03889058995992,127.936602128495 180.69017969607376,128.48388874769444 180.53519707685336,128.52949593376252 178.83038826286793,131.58516614639666 178.52042302396148,131.95002080861013 178.0942208203487,132.7253359152237 177.7842555816751,133.09018958875095 177.1255794488825,133.5918628735235 176.5056489710696,133.8198959871661 170.73254639655352,134.59520764899207 169.99637895426713,134.8688467181346 169.6864137153607,135.14248560919077 169.41519413143396,135.68976285780082 169.29895716672763,136.73870892831474 169.37644847645424,137.4684090007795 169.29895716672763,137.97007706653676 169.0277375828009,138.47174453441403 168.3690614500083,139.29265364652383 167.94285924639553,139.9767433500674 167.63289400772192,140.2503789202019 167.32292876881547,140.79764952679398 166.62550698127598,141.572948334564 166.54801567154936,141.75537137576612 165.77310257428326,142.57627408325789 164.61073292861693,143.48838632475235 163.83581983135082,144.263680175849 163.44836328271776,144.4917075074336 163.1771436985582,144.76534014215576 162.13101101736538,145.54063164099352 161.976028398145,145.63184231167543 160.54243916808628,146.72636881817016 160.1162369644735,146.9087896257406 158.4889194604475,147.0 156.977838920895,146.95439481540234 156.396654097829,146.81757923189434 154.69184528384358,146.7719740275934 153.4519843282178,146.95439481540234 151.9409037886653,146.7719740275934 150.93351676221937,146.81757923189434 150.19734931993298,146.72636881817016 148.8799970545806,146.81757923189434 146.55525776278228,146.63515838456806 145.39288811711594,146.63515838456806 143.92055323231034,146.4527374583995 141.4408313210588,146.49834269739222 137.06257232185453,146.17910592077533 136.63637011824176,146.04229008516995 135.93894833070226,145.63184231167543 135.74522005650215,145.31260487780673 135.59023743704893,145.22139413791592 135.4352548175957,144.85655098073767 134.97030695923604,143.39717518960242 134.97030695923604,143.1691472651146 134.81532433978282,142.84990796327475 134.77657868503593,142.34824571403442 134.62159606534988,141.98340006632498 134.42786779114977,140.84325537848054 134.27288517169654,140.4328025348368 134.11790255247615,139.65750162678887 134.0404112425167,138.6541689199803 133.8854286230635,138.1068955262599 133.8854286230635,137.65083382106968 134.07915689749643,136.10022032720735 134.5441047558561,134.5496011202631 135.20278088841587,133.50064959359588 135.66772874677554,132.90776279158308 136.63637011824176,131.95002080861013 137.0238266668748,131.4483455666341 137.5275201802142,130.99227664599312 138.22494196752086,130.5818141947966 139.0386007197667,130.3537793266296 140.8209008432459,130.2625653449213 141.63455959549174,130.03453030373203 142.176998763578,129.66967398108682 142.68069227668457,129.12238890386652 143.22313144477084,128.11903108062688 143.26187709975056,127.936602128495 143.41685971920379,127.57174398686038 144.15302716149017,126.65959724903223 144.46299240039662,126.5227750678896 144.69546632957645,126.24913057213416 145.62536204629578,125.92987843544688 146.43902079830877,125.83866349476739 147.13644258584827,125.6562335540948 147.56264478922822,125.6562335540948 148.9574883643072,125.2457658983476 149.84863842604682,124.56165224924916 150.3523319393862,123.92314517323393 150.77853414276615,123.05659830645891 151.0497537269257,122.19004965526983 151.1272450366523,121.23228328046389 151.0884993816726,120.8218113098992 150.85602545249276,120.04647427276359 150.54606021358632,119.27113580718287 150.3523319393862,117.90288797116955 150.31358628440648,116.89950339734787 150.3523319393862,116.35220171240508 150.42982324911281,116.12415913344012 150.3523319393862,114.93833573133452 150.4685689038597,114.25420532550197 150.42982324911281,113.88933532102965 150.54606021358632,112.88594117714092 150.54606021358632,112.06498055253178 150.31358628440648,111.38084547512699 149.92612973600626,110.65110016672406 149.34494491294026,109.69330752876704 148.8799970545806,109.05477789239376 147.988846992841,108.14259101677453 147.4851534795016,107.77771571278572 147.05895127612166,107.41284009238007 146.78773169219494,107.04796415567398 146.24529252410866,105.7252862326859 146.24529252410866,104.99553111608839 146.36152948858216,104.22016491796239 146.71024038246833,103.21674771729158 147.21393389557488,102.30454818558064 147.5238991342485,102.03088794037467 148.22132092202082,101.43795679870527 148.57003181567416,101.25551627928508 149.53867318714038,100.89063500313205 150.08111235522665,100.57136362715391 150.31358628440648,100.52575341067859 151.43721027555875,99.93282014800934 152.75456254091114,98.7013407018676 153.29700170876458,97.97157340342528 153.4519843282178,97.88035240210593 154.0331691512838,97.05936250038212 154.53686266439036,95.96470680626226 154.80808224831708,94.77882659054012 155.15679314220324,94.41393969784258 156.2416714783758,93.77538687430206 157.7140063631814,93.41049911134178 158.17895422154106,93.41049911134178 159.65128910611384,93.1824440988712 160.65867613255978,93.13683308160398 161.35609792009927,93.0 162.20850232685916,93.04561103196465 162.59595887549222,93.27366611873731 163.33212631801143,94.00344156534993 163.60334590193816,94.68760489704437 163.8745654860977,95.09810236198246 164.22327637975104,96.05592822289327 164.64947858336382,96.74008821716416 164.76571554807015,97.05936250038212 165.1531720967032,97.6522998122382 166.0443221584428,98.42767811339581 166.31554174236953,98.61011985875666 167.28418311383575,98.92939272304648 168.52404406946152,98.97500311251497 169.33770282170735,99.0662238765508 169.80265068006702,99.20305498535163 170.38383550290018,99.24866534522153 171.1200029454194,99.47671706962865 172.39860955579206,100.16087150183739 173.05728568835184,100.38892273182864 173.2122683080379,100.25209200876998 173.36725092725828,99.88720986249973 173.44474223721772,99.0662238765508 173.5222335467115,98.79256152518792 173.63847051141784,98.01718389670714 173.79345313087106,96.5120350093639 173.90969009534456,96.28398167798878 173.98718140507117,95.6910424378002 174.06467271479778,95.64543169233366 174.52962057315744,96.05592822289327 176.23442938714288,96.96814130130224 177.2805620683357,97.83474189406843 177.9004925461486,98.42767811339581 178.5979143336881,99.0206134969776 178.7916426078882,99.11183425105992 179.29533612099476,99.75037897599395 180.3027231474407,100.7994146347628 180.41896011214703,101.02746551879682 180.53519707685336,101.07307568076067 181.15512755466625,101.71161742947879 181.5813297580462,102.48698825002066 182.00753196142614,103.07991791356471 182.12376892613247,103.12552785297157 182.2787515455857,103.07991791356471 183.01491898787208,104.03772560486686 183.44112119125202,104.99553111608839 183.7898320851382,105.49723789459676 183.9448147045914,105.95333444702555 184.17728863377124,106.27260173964896 184.37101690797135,106.7286974513554 184.5647451824043,107.5496684871905 184.95220173103735,108.46185664809309 185.14593000523746,109.28282430241234 185.6108778633643,110.55988191420329 185.72711482830346,111.0615820584353 185.80460613803007,111.24401832619333 185.76586048305035,111.65449963964056 185.95958875725046,112.38424320795457 185.84335179277696,112.93155005367589 186.03708006697707,114.11737911088858 186.1145713769365,114.93833573133452 186.03708006697707,116.21537617983995 186.0758257219568,116.71706958138384 185.99833441223018,117.12754555614083 186.1145713769365,117.58362950268202 186.1145713769365,118.08532127304352 185.9208431027364,119.49917668048874 185.9208431027364,119.77282556556747 185.64962351834401,120.63937919438467 185.64962351834401,120.9130273378978 185.4558952441439,121.36910718187573 185.49464089912362,121.64275485088001 185.18467566021718,122.69173593400046 185.02969304076396,123.01099052710924 184.7584734566044,123.96875285368878 184.44850821769796,124.78969025579863 184.37101690797135,124.88090542386635 184.37101690797135,125.20015835628146 184.21603428851813,125.74744853415177 184.25477994349785,125.92987843544688 184.40976256271824,126.11230825740495" stroke="#4dd2ff" stroke-linecap="round" stroke-linejoin="round" stroke-width="0.5"><title>2022-11-17 4.6km</title></polyline><polyline fill="none" points="41.627317503793165,205.85986890189815 41.39484357484616,206.13350064714905 41.04613268096,206.3615269655711 40.96864137123339,206.54394793140818 40.581184822600335,206.72636881817016 39.99999999976717,206.86318443130585 39.14759559277445,206.86318443130585 38.411428150488064,207.0 36.629128026776016,206.86318443130585 35.582995345583186,206.81757923189434 34.536862664157525,206.9087896257406 32.6770712309517,206.9087896257406 32.05714075313881,206.72636881817016 31.824666823958978,206.7719740275934 30.623551523080096,206.72636881817016 30.19734931970015,206.7719740275934 29.771147116320208,206.68076360385749 29.383690567454323,206.72636881817016 29.15121663827449,206.5895531604765 28.02759264735505,206.49834269739222 26.826477346708998,206.63515838456806 26.245292523875833,206.49834269739222 25.625362045830116,206.49834269739222 25.237905497429892,206.54394793140818 24.85044894879684,206.4527374583995 24.269264125730842,206.40713221440092 23.339368409244344,206.49834269739222 19.697276852093637,206.4527374583995 19.387311613187194,206.31592171167722 18.651144170900807,206.31592171167722 17.91497672838159,206.17910592077533 16.86884404742159,206.08789536857512 16.326404879102483,205.76865828060545 15.667728746542707,205.0389725988498 14.97030695900321,203.53399188499316 14.8928156492766,202.8043023290229 14.97030695900321,202.43945707654348 14.815324339549989,202.34824571403442 14.544104755390435,201.8921886049793 14.427867790916935,200.98007290417445 13.96291993255727,199.42947167626699 13.92417427757755,198.51735063816886 13.846682968083769,198.24371394136688 13.807937313336879,197.4228027832578 13.92417427757755,196.05461396140163 14.234139516483992,194.8688467181346 14.466613445663825,194.41278150415746 15.396509162615985,193.0445828968659 15.93894833046943,192.5885157061275 16.365150534082204,192.04123442459968 17.450028870021924,191.03788356020232 18.06995934783481,190.6730281074415 19.11609202926047,190.3537793266296 19.96849643625319,190.30817233823473 20.239716020179912,190.39938631019322 20.8596464979928,190.2625653449213 21.634559595026076,189.94331625281484 22.138253108598292,189.57845985112363 22.17699876311235,189.44163861870766 22.486964002251625,189.16799602087121 22.83567489590496,188.62071029134677 23.145640135044232,187.936602128495 23.494351028697565,187.34370748777292 23.8430619223509,186.8876341189025 24.19177281600423,186.61398986028507 25.04417722322978,186.06670080922777 25.586616391083226,185.8386634947674 26.98145996616222,185.6562335540948 28.686268780147657,185.2457658983476 29.538673186907545,184.6984750679694 30.11985800997354,184.19679118157364 30.739788487786427,183.42146036261693 31.08849938167259,181.96201023989124 31.12724503641948,181.3234992196376 31.04975372669287,180.50255505583482 30.701042832806706,179.5447848404583 30.313586284406483,177.49241275287932 30.352331939153373,176.30659320642008 30.313586284406483,174.66468370248913 30.468568903859705,173.66129140742123 30.468568903859705,172.9315500536759 30.352331939153373,171.97376260647434 29.96487539052032,170.65110016672406 29.538673186907545,169.83013518201187 28.725014434894547,168.78112203726778 28.415049195988104,168.59868470177753 28.18257526680827,168.23380979336798 27.795118718175218,167.86893456842517 27.601390443742275,167.73210627760272 26.555257762782276,166.63747834865353 26.206546868896112,165.63406691228738 26.284038178622723,164.4026041519537 26.516512107802555,163.62723686126992 27.407662169542164,161.93966781915515 27.91135568264872,161.5291770286858 28.763760089874268,161.02746551879682 29.267453602980822,160.8450248213776 29.96487539052032,160.48014318940113 31.16599069116637,160.0696509750269 31.514701585052535,159.70476867072284 32.05714075313881,159.33988604976912 32.405851646792144,158.88378232877585 32.71581688569859,158.6557302828296 33.91693218634464,157.19619426201098 34.3818800447043,156.28398167798878 34.73059093859047,154.6419940427877 34.84682790306397,154.4595505768084 35.23428445169702,154.0490524888155 36.590382372029126,153.50172108173138 37.442786778789014,153.41049911134178 38.06271725683473,153.50172108173138 38.79888469912112,153.4561100990977 39.41881517670117,153.2280551113363 39.84501738031395,153.2280551113363 41.04613268096,153.0 41.43358922959305,153.04561103196465 41.89853708795272,153.0 42.09226536215283,153.04561103196465 42.32473929133266,153.0 42.595958875492215,153.13683308160398 42.90592411439866,153.41049911134178 43.448363282484934,154.1858852292644 43.83581983111799,155.23493476133444 44.18453072477132,155.91909609059803 44.76571554783732,156.69447758540628 44.95944382203743,157.1505836797296 45.501882990123704,158.01718389670714 46.08306781295687,158.56450942973606 47.32292876858264,158.97500311251497 47.632894007489085,158.92939272304648 47.90411359164864,158.97500311251497 48.05909621086903,158.92939272304648 49.531431095907465,158.92939272304648 50.500072467373684,159.24866534522153 50.88752901600674,159.24866534522153 51.662442113040015,159.47671706962865 52.786066103959456,160.11526124092052 53.13477699784562,160.2064817576902 53.36725092702545,160.2064817576902 53.483487891731784,160.0696509750269 53.638470510952175,159.20305498535163 53.638470510952175,158.47328855708474 53.793453130405396,157.88035240210593 53.87094444036484,156.64886694887537 54.06467271456495,155.6910424378002 54.33589229849167,155.59982094206498 54.607111882651225,155.87348536995705 54.99456843105145,156.01031751706614 55.45951628964394,156.42081369148218 55.730735873570666,156.46642435292597 57.20307075837627,157.5154681991844 58.1329664750956,158.33645721091307 59.0628621915821,159.0662238765508 59.48906439519487,159.65915836038766 60.03150356328115,160.1608715018374 60.22523183771409,160.5257534106786 60.728925350587815,160.7994146347628 60.84516231552698,160.93624517999706 60.767671005567536,161.11868583783507 60.80641666054726,161.30112641648157 61.1163818994537,161.5747871362837 62.20126023562625,163.1711377876054 62.704953748732805,163.49040719107143 62.85993636818603,163.7184566166543 63.09241029736586,164.17455509715364 63.01491898763925,164.44821394814062 63.4023755362723,165.04114084795583 63.634849465452135,165.2235797260073 63.789832084672526,165.588457244623 64.21603428851813,166.22699214119348 64.25477994326502,166.63747834865353 64.13854297855869,167.04796415567398 64.40976256271824,167.50405902726925 64.99094738578424,169.009168595745 65.5721322086174,170.97036389485584 65.64962351834401,171.97376260647434 65.88209744752385,172.47546106492518 65.84335179254413,172.7947234090534 65.99833441223018,173.75250898767263 65.95958875725046,173.88933532102965 66.03708006674424,174.11737911088858 66.03708006674424,174.61907501370297 66.19206268643029,176.16976765915751 66.15331703145057,176.48902720035403 66.19206268643029,176.71706958138384 66.19206268643029,177.1731539730099 66.11457137647085,177.674846232665 66.11457137647085,177.94849630398676 66.03708006674424,178.222146197455 66.03708006674424,179.08870301928255 65.84335179254413,179.7272174305108 65.7271148278378,180.86741932638688 65.45589524391107,181.91640234203078 65.4946408988908,182.2812653867877 65.30091262445785,182.6461281152442 64.95220173080452,183.92314517323393 64.75847345637158,184.2423988323717 64.0997973238118,186.11230825740495 63.94481470435858,186.3859528421308 63.86732339463197,186.75081201191642 63.47986684599891,187.52613669697894 63.28613857156597,187.7541730972007 63.20864726207219,187.7997803624894 62.97617333289236,187.66295855189674 62.89868202316575,187.57174398686038 62.89868202316575,186.70520463291905 62.743699403479695,186.34034542375593 62.47247981932014,186.06670080922777 62.16251458064653,185.9754858983506 62.12376892566681,186.34034542375593 61.9300406514667,186.56838246659026 61.46509279333986,187.52613669697894 61.19387320918031,188.16463830627617 61.03889058972709,188.25585274281912 60.767671005567536,188.666317462601 58.90787957236171,192.26926837841165 58.32669474929571,193.0445828968659 57.629272961989045,193.50064959359588 56.81561420974322,193.86550259499927 53.98718140483834,193.9567157959682 53.25101396255195,194.09353556041606 52.786066103959456,194.00232238898752 52.708574794465676,194.09353556041606 51.507459493819624,194.18474871179205 50.500072467373684,194.5496011202631 50.22885288344696,194.9144532122882 49.91888764430769,195.59855003250414 49.80265067983419,196.87552778836107 49.686413715127856,197.4228027832578 49.763905024854466,197.65083382106968 49.570176750654355,198.19810780783882 48.21407883032225,199.9767433500674 47.594148352509364,200.70643780843238 47.12920049438253,201.39052521414123 46.702998290769756,201.75537137576612 45.96683084848337,202.57627408325789 45.695611264556646,202.7586966896779 45.656865609576926,202.89551359260804 44.84320685756393,203.44278075968032 44.610732928151265,203.71641407636344 43.95205679559149,204.21807469477062 43.83581983111799,204.44610205106437 43.719582866411656,204.44610205106437 43.564600247191265,204.4917075074336 43.7970741763711,204.76534014215576 43.99080245057121,205.22139413791592" stroke="#4dd2ff" stroke-linecap="round" stroke-linejoin="round" stroke-width="0.5"><title>2022-11-08 4.7km</title></polyline><polyline fill="none" points="158.82431995356455,169.27813424397027 158.85889877856243,169.27813424397027 158.92805642832536,169.03396743969643 159.82710587547626,168.05729863629676 159.96542117500212,167.6910471804731 160.44952472357545,167.0806272943737 160.82989179738797,166.10395341401454 160.86447062226944,165.9411741870572 161.14110122143757,165.49353094951948 161.24483769596554,165.08658208910492 162.24762361787725,163.37739206233528 162.35136009252165,162.9704409101396 162.55883304192685,162.6041844963038 162.73172716633417,162.1158420558495 162.76630599121563,161.8309753391659 162.93920011573937,161.42402251204476 162.93920011573937,161.17985060423962 163.14667306502815,160.61011553567369 163.35414601431694,160.2438568212092 163.52704013884068,159.71481582548586 163.699934263248,159.0229918609548 164.14945898682345,158.2497753345233 164.52982606051955,157.19168698292924 164.66814136027824,157.02890389526146 164.73729900992475,156.70333750819555 164.66814136027824,156.62194586728583 164.70272018527612,156.09289977198932 164.66814136027824,155.7266366541735 164.77187783492263,155.5231569900934 164.8064566598041,155.19758929833188 164.87561430956703,155.0755013412563 165.0139296092093,154.6278451588296 165.94755788124166,153.8546195878007 166.60455555398948,153.52905045024818 166.91576497803908,153.2848734120489 167.53818382625468,153.0 168.1951814990025,153.04069621500093 168.67928504745942,153.20348103062133 169.09423094626982,153.36626577575225 169.37086154532153,153.7325311943423 169.9932803933043,154.34297276521102 170.44280511699617,154.8720213244087 171.8951157623669,155.88942030628095 172.06800988677423,156.17429152745171 172.27548283629585,156.33707498543663 172.96705933404155,156.66264168993803 173.03621698380448,156.825424936309 173.6240570069058,157.27307850052603 173.65863583190367,157.31377425257233 173.34742640785407,157.51725294697098 173.03621698380448,158.00560136404238 172.79416520951781,158.2497753345233 171.8259581127204,159.79620679633808 170.89232984068803,161.09845993301133 170.3044898173539,162.07514682380133 169.8203862690134,162.68557484133635 169.2325462459121,163.70295266690664 169.05965212138835,163.86573286328348 168.7138638724573,164.39476801481214 168.2989179737633,165.33075145832845 167.8148144253064,166.02256380932522 167.53818382625468,166.34812212202814 166.74287085374817,167.52826864118106 165.67092728207354,168.83049498166656 165.3942966829054,169.31882869591936 165.04850843397435,169.80716177556315 164.97935078432783,170.13271680937032 164.66814136027824,170.53966020510416 164.49524723587092,170.8652146043023 164.28777428646572,171.15007447238895 164.14945898682345,171.4756283427414 163.1120942402631,173.22547556413338 162.55883304192685,173.8765794270439 161.83267771906685,174.6090699241613 161.3139953458449,175.30086519394536 161.3139953458449,175.42294657989987 160.72615532274358,176.5623709365609 159.34300232701935,178.10872703773202 158.96263525332324,178.88190270206542 158.2710587553447,179.85854337285855 157.95984933141153,180.59102221028297 157.579482257599,181.1200338161434 157.5103246079525,181.3641927675344 157.37200930831023,181.56765843939502 156.6804328104481,182.1373617342615 156.57669633580372,182.42221305781277 156.1963292619912,182.78845015657134 155.71222571353428,183.56161619295017 155.43559511448257,184.21270214792457 155.05522804055363,184.497551898472 154.84775509126484,184.78240143306903 154.05244211875834,185.96249006234575 153.6720750449458,186.41010891785845 153.6720750449458,186.45080151458387 153.22255032137036,187.1018824641651 152.60013147327118,188.1598866013228 152.35807969910093,188.36334859390627 152.04687027505133,188.89234925920027 152.0814491000492,188.9737339108833 151.52818790182937,189.58411823649658 150.9057690538466,190.4793467875279 150.6982961044414,190.60142324276967 150.31792903051246,190.96765237106592 150.14503490598872,191.25249700184213 150.14503490598872,191.41526526535745 150.0758772563422,191.53734141669702 149.93756195658352,191.5780334584124 149.83382548205554,191.8221856156888 150.0758772563422,191.61872549558757 150.0758772563422,191.53734141669702 150.00671960657928,191.53734141669702 150.00671960657928,191.41526526535745 150.55998080479912,190.88626815119642 150.80203257896937,190.76419178838842 150.9057690538466,190.4793467875279 151.21697847766336,190.19450157083338 151.90855497540906,189.3399646251928 152.3926585239824,188.52611810868257 152.70386794803198,188.2005790086987 152.91134089743719,187.83434718396165 152.94591972231865,187.71226982978988 153.11881384660956,187.42742251587333 153.4646020954242,187.22396001659217 153.81039034447167,186.77634213026613 154.08702094352338,186.36941631659283 154.08702094352338,186.28803110105218 154.46738801745232,185.55556336746668 154.70943979162257,185.31140713894274 154.81317626638338,185.1486362318101 154.9860703907907,185.1079434939602 155.573910413892,184.09062361723045 156.4729598610429,182.86983613003395 156.64585398556665,182.5035991106124 157.23369400855154,181.893203285028 157.68321873235982,181.1200338161434 157.994428156293,180.75379509138293 158.0981646309374,180.3875560098095 158.37479523010552,179.85854337285855 159.6887905759504,178.3935814149154 160.72615532274358,176.6844519127626 160.7953129723901,176.39959624002222 161.0027859217953,175.91127172729466 161.4868894702522,175.13808995092404 162.76630599121563,173.7138035671087 163.18125188990962,173.02200537564931 163.35414601431694,172.9406172693998 163.56161896372214,172.73714692672365 163.66535543836653,172.37090003216872 163.83824956277385,172.16742938090465 163.97656486241613,171.80118193116505 164.39151076122653,171.231462966447 164.5989837103989,170.53966020510416 164.84103548468556,170.21410552388988 165.04850843397435,169.80716177556315 165.35971785802394,169.48160645962344 165.56719080742914,169.0746619181882 165.8092425817158,168.87118948216084 165.84382140648086,168.74910596761038 166.05129435588606,168.5456333553593 166.2933461299399,168.1793823755579 166.56997672934085,168.0166040478216 166.63913437898736,167.77243642386748 166.81202850339469,167.73174180436763 167.0195014527999,167.44687934507965 167.43444735149387,167.0399326000188 167.67649912578054,166.55159592424752 167.84939325018786,166.42951165616978 168.126023849356,165.61561552181956 168.54096974793356,164.96449734506314 168.6101273978129,164.7203277378867 168.8176003472181,164.5168529440416 168.8176003472181,164.2726830460888 169.37086154532153,163.70295266690664 169.88954391877633,162.9297457707289 170.44280511699617,162.0344515874167 170.65027806628495,161.58680369579815 170.99606631533243,161.17985060423962 171.48016986378934,160.1624659472145 172.51753461034968,158.86020956659922 172.51753461034968,158.65673159938888 172.96705933404155,157.96490568685113 173.416584057617,157.55794867270743 173.69321465678513,157.1509912176989 174.24647585500497,157.31377425257233 174.66142175369896,157.59864439381636 175.04178882751148,157.63934011067613 176.35578417335637,158.12768836904434 176.56325712264515,158.69742720166687 176.5286782977637,158.7788183929515 176.18289004883263,158.86020956659922 175.94083827442955,159.06368742359336 175.80252297513653,159.06368742359336 175.6296288506128,159.22646962976432 175.35299825144466,159.18577408484998 175.3184194266796,158.69742720166687 175.18010412715375,158.45325352216605 175.24926177680027,158.2497753345233 175.5258923759684,158.08699270521174 175.94083827442955,158.12768836904434 176.25204769859556,158.2904709808936 177.15109714574646,158.16838402862777 177.0127818462206,158.2497753345233 177.18567597074434,156.9068165330682 177.11651832074858,156.62194586728583 176.94362419645768,156.37777083888068 176.94362419645768,156.2149873985618 176.77073007193394,156.17429152745171 176.45952064788435,156.2963791275688 176.4249418232357,156.37777083888068 176.5286782977637,156.33707498543663 176.5286782977637,156.25568326524808 176.80530889693182,156.09289977198932 176.2174688738305,156.49985837293207 177.60062186943833,156.01150799891911 177.7043583439663,156.09289977198932 177.77351599384565,156.33707498543663 177.66977951920126,156.41846668810467 176.25204769859556,157.72073153121164 175.87168062478304,158.16838402862777 175.87168062478304,158.2904709808936 175.5258923759684,158.57534038173617 174.9380523528671,159.71481582548586 173.93526643095538,160.6915063126944 173.69321465678513,161.22054593329085 172.69042873498984,161.91236585163279 172.44837696070317,162.15653728341567 172.13716753665358,162.6041844963038 171.54932751343586,163.1739165413892 171.30727573938202,163.5401723998657 170.5119627667591,164.47615797209437 170.09701686818153,165.2493616862048 170.02785921830218,165.90047936938936 169.85496509389486,166.3074273483362 169.37086154532153,166.79576434148476 168.88675799686462,167.40618469036417 168.67928504745942,168.09799322043546 168.67928504745942,168.30146607520874 168.5063909231685,168.58632788667455 168.5063909231685,169.19674532685895 168.43723327340558,169.31882869591936 167.95312972494867,169.80716177556315 167.67649912578054,170.25479987438302 167.2269744022051,170.66174313781084 167.0195014527999,170.9059088844515 166.95034380292054,171.15007447238895 166.67371320386883,171.43493412440876 166.15503083053045,171.71979356047814 165.8092425817158,172.086041089613 165.67092728207354,172.6150646682072 165.70550610683858,173.5510276365385 165.11766608373728,174.8532331059978 164.8064566598041,175.3415589937067 164.11488016194198,176.19612777020666 163.73451308824588,176.80653284923756 163.35414601431694,177.25416261062492 163.1120942402631,177.4169369370502 162.76630599121563,177.94595301090158 162.2130447929958,178.3935814149154 162.1093083183514,178.63774213785655 161.5906259448966,179.12606310771662 161.5214682952501,179.49230341878138 161.21025887108408,179.9806232781848 161.14110122143757,180.26547623652732 161.17568004631903,180.79448830059846 161.03736474679317,180.9165679019643 160.7953129723901,182.05597560212482 160.65699767286424,182.42221305781277 160.2074729494052,182.70706416547182 160.10373647452798,182.82914314549998 159.75794822582975,182.95122208594694 159.51589645142667,183.19537984777708 159.13552937773056,183.3988445280993 158.2710587553447,183.6836948955024 157.95984933141153,183.88715931144543 157.64863990736194,184.33478063871735 157.54490343260113,184.66032308756257 157.579482257599,185.59625605665497 157.68321873235982,185.92179741259315 157.68321873235982,186.28803110105218 157.23369400855154,186.939112332504 156.74959046009462,187.22396001659217 156.57669633580372,187.42742251587333 156.36922338639852,187.59019243592047 156.1963292619912,187.91573206472094 155.71222571353428,188.2005790086987 155.6084892388899,188.48542573663872 155.1935433400795,189.05511854492943 154.8823339160299,189.38065690471558 154.77859744150192,189.70619498263113 154.3636515425751,190.0724249831983 153.91412681911606,190.2758859403839 153.6720750449458,190.52003894367954 152.56555264850613,191.17111284361454 151.94313380040694,191.98495363243273 151.45903025195003,193.04294402326923 150.9057690538466,193.69401355276932 150.42166550515685,194.10093143585254 149.90298313181847,195.07753255797434 149.31514310883358,195.64721537393052 148.7964607353788,196.42035495734308 147.8628324631136,197.64109842985636 147.48246538941748,198.3328513042652 146.96378301619552,198.9432204303448 146.79088889155537,199.3908238261356 146.47967946750578,199.91980897029862 146.13389121869113,200.40810228866758 145.99557591904886,200.48948444670532 145.7881029699929,200.89639497274766 145.7881029699929,201.05915905968868 145.51147237059195,201.42537799783167 145.16568412189372,202.0357421018125 144.6815805734368,202.4426509537734 144.61242292344104,202.68679605351645 144.30121349950787,202.97163180276402 144.23205584986135,203.13439499115339 143.92084642569534,203.33784887747606 143.71337347640656,203.58199339578277 143.3675852274755,204.39580731125898 143.3675852274755,204.31442599903676 143.2638487528311,204.35511665733065 142.8834816790186,205.12823832873255 142.3647993055638,205.86066791883786 142.22648400615435,206.51171524528763 142.3647993055638,207.0" stroke="#4dd2ff" stroke-linecap="round" stroke-linejoin="round" stroke-width="0.5"><title>2022-11-05 5.2km</title></polyline><polyline fill="none" points="29.21395354345441,266.95408455617144 27.887640416854993,267.0 26.600336499745026,266.9081691073661 25.625106259714812,266.95408455617144 24.922940486576408,266.86225365352584 23.28455368313007,266.9081691073661 22.075268185231835,266.6326763097604 21.724185298895463,266.67859178839717 20.94400110654533,266.58676082614693 19.812734028091654,266.58676082614693 19.344623512821272,266.49492984375684 18.75948536884971,266.54084533744026 16.96506172651425,266.4490143452131 16.301905163330957,266.2194367776101 15.833794648060575,265.943943532242 15.560730180703104,265.4847877253487 15.560730180703104,265.3011252632423 15.170638084644452,263.6940753245144 14.546490730717778,261.44419517106144 14.429463102016598,261.21461489176727 14.195407844381407,260.020795434888 13.883334167534485,259.0106378828932 13.805315748322755,258.0463943367067 13.805315748322755,257.26581462068134 14.117389425169677,255.56690085629816 14.429463102016598,254.74039980533416 14.85856440779753,253.95981399904122 15.404693342512473,253.271060622792 17.433172241784632,251.15887662116438 17.862273547565565,250.83745639355038 18.291374853346497,250.69970479269978 18.75948536884971,250.60787036729744 18.95453141676262,250.51603592198808 20.280844543362036,250.51603592198808 21.10003794496879,250.3323669716483 21.685176089173183,250.05686339686508 22.231305023655295,249.73544233330176 22.582387910224497,249.27626896233414 22.97248000628315,248.63342540699523 23.08950763498433,248.22016832066583 23.28455368313007,247.85282834991813 23.51860894076526,247.48548806080362 24.142756294459105,246.8885594116291 25.46906942105852,246.10795914006303 26.288262822898105,245.8324528184312 27.69259436870925,245.7406173380732 28.667824608972296,245.32735743021476 28.979898285819218,245.09776841822895 29.40899959136732,244.91409711926826 29.955128526082262,244.40900063625304 30.696303508477286,243.49064185173484 30.930358766112477,242.80187145702075 31.008377185557038,242.38860868275515 31.086395604535937,241.74575467716204 31.086395604535937,241.10289969618316 30.891349556390196,239.95494194683852 30.657294299220666,239.40392112228437 30.267202202929184,237.47534259301028 30.306211412651464,236.28145624694298 30.423239041352645,235.91410592518514 30.345220622140914,235.40899871254805 30.423239041352645,234.99572872719727 30.462248250842094,233.7099973054428 30.540266670053825,233.34264475406962 30.540266670053825,232.79161532962462 30.423239041352645,231.7813928569085 30.072156155016273,230.81708734016865 29.877110106870532,230.54157107506762 29.48701801081188,229.53134323694394 28.862870657118037,228.52111298998352 27.965658836066723,227.78639856987866 27.41952990158461,227.41904088208685 27.10745622473769,227.14352240713197 26.873400967102498,226.7761641618854 26.561327290255576,226.13328646621085 26.249253613175824,225.16896809329046 26.288262822898105,224.2046475254465 26.561327290255576,223.33216512028594 27.14646543422714,222.4137606472068 27.53655753051862,221.90863733825972 28.160704883979633,221.4494338076329 28.745843028184026,221.1279910399753 29.36999038187787,220.8983889137744 29.56503642979078,220.76062757824548 30.852340347133577,220.30142280319706 32.06162584479898,219.38301175966626 32.802800827426836,218.6023608072428 33.93406790611334,217.13289628823986 34.480196840595454,216.03079455389525 34.675242888508365,215.02053211201564 34.831279726931825,214.65316335388343 35.14335340377875,214.2857942772389 35.80650996719487,213.91842488202383 36.859758626436815,213.50513393155416 37.52291519008577,213.3673701916996 38.18607175326906,213.3673701916996 38.57616384932771,213.27552767374436 39.70743092801422,213.22960640719975 41.228790102526546,213.0 42.04798350436613,213.0 42.63312164857052,213.1836851357657 42.75014927750453,213.27552767374436 43.179250583052635,214.0102672606008 44.4665545001626,216.85737112356583 45.285747902002186,218.0513122099801 46.6120610286016,218.8319641779526 47.470263639930636,219.01564678477007 49.459733329946175,219.15340868776548 51.488212229451165,219.7044558514317 52.77551614656113,220.30142280319706 53.00957140419632,220.34734330320498 53.28263587155379,220.20958178845467 53.594709548400715,219.52077354310313 53.86777401575819,218.09723295384902 53.945792434737086,217.08697543982998 54.02381085418165,216.90329199674306 54.10182927339338,216.2603993184166 54.25786611181684,215.75526867236476 54.72597662708722,215.80118966504233 55.935262124752626,216.58184577952488 56.13030817289837,216.6736875807983 56.75445552659221,217.13289628823986 57.06652920343913,217.50026289591915 57.37860288028605,217.72986686375225 57.768694976577535,218.23499515539152 58.50986995897256,218.87788483707118 59.875192295061424,220.34734330320498 60.148256762418896,220.85246847366216 60.77240411611274,221.4494338076329 61.51357909874059,222.55152144498425 62.37178171006963,223.19440457620658 62.60583696770482,223.51584577586618 63.65908562717959,225.62816759210546 63.854131675325334,226.36288575519575 64.16620535193942,226.91392354120035 64.47827902878635,228.24559523176868 64.71233428642154,228.61295220279135 65.72657373640686,231.64363506023074 65.72657373640686,231.9650698491896 65.96062899404205,233.2048874651082 66.15567504195496,234.99572872719727 66.11666583269835,236.09778112586355 66.19468425167724,236.69472497829702 66.07765662297606,237.88861015983275 66.11666583269835,238.21004021080444 66.03864741325378,239.26616580420523 65.84360136510804,240.00086031644605 65.64855531719513,241.6080001205264 65.45350926928222,242.20493620922207 65.1414355924353,243.39880586380605 64.51728823850863,245.2814396378526 63.89314088458195,246.65897124563344 63.854131675325334,246.8885594116291 63.46403957926668,247.5773231628409 63.22998432139866,248.17425084166462 63.11295669269748,248.17425084166462 63.11295669269748,247.99058087629965 62.9959290639963,247.62324070653995 63.03493827348575,247.07222985484987 62.91791064455174,246.70488888886757 62.44980012951419,246.06204143216019 62.254754081368446,246.10795914006303 61.47456988901831,247.53140561431064 61.16249621217139,247.89874586369842 60.30429360084236,249.59769037438673 59.48510019900277,250.83745639355038 58.50986995897256,252.81189108322724 57.690676557132974,253.54656210765825 57.26157525135204,253.82206341339042 56.05228975368664,254.0975645399012 54.14083848288283,254.2353150359413 53.86777401575819,254.1893982089532 52.42443325999193,254.41898229462095 51.80028590653092,254.37306548733613 50.43496357020922,254.64856625563698 50.08388068364002,254.87815009246697 49.73279779730365,255.19956725495285 49.420724120456725,255.93423413933488 49.342705701012164,256.62298318662215 49.264687281800434,258.00047792252735 49.186668862821534,258.4137254701054 46.53404260938987,262.04110331472475 46.18295972282067,262.36251504393294" stroke="#4dd2ff" stroke-linecap="round" stroke-linejoin="round" stroke-width="0.5"><title>2022-11-03 4.6km</title></polyline><polyline fill="none" points="182.7928994083777,253.92851963388966 183.19230769237038,253.92851963388966 183.2721893490525,253.8345184166974 183.64497041422874,253.77185092156287 183.99112426035572,253.615182124282 183.99112426035572,253.52118080522632 183.77810650889296,253.42717945575714 183.64497041422874,253.2391766649962 183.6183431952959,253.08250757935457 183.77810650889296,252.8005030117056 183.93786982260644,252.6438336886349 184.12426035501994,252.54983205415192 184.3905325443484,252.299160879571 184.55029585806187,251.95448765996844 184.8698224851396,251.51581205945695 185.1094674556516,251.39047605145606 185.16272189340089,251.26513998929295 185.32248520711437,251.07713579412666 185.3491124260472,250.85779741214355 185.53550295869354,250.73246111924527 185.80177514790557,250.38778603379615 186.09467455616686,250.1057788404869 186.36094674572814,249.7297688218241 186.68047337280586,249.44776098729926 187.0,249.44776098729926 186.97337278106716,249.3224240837153 186.89349112426862,249.2597556116525 186.92011834331788,248.72707305054064 186.76035502948798,248.41372990974924 186.78698224853724,247.9123801785463 186.73372781078797,247.50503288250184 186.62721893494017,247.12901948500075 186.44082840252668,246.94101260308526 186.17455621308181,246.87834361521527 185.9881656804355,246.72167108638678 185.7485207101563,246.12631470325869 185.7485207101563,245.78163413208677 185.90828402363695,245.40561849548249 186.20118343201466,245.15494113304885 186.30769230762962,244.74758995580487 186.33431952667888,244.46557726652827 186.20118343201466,243.93288588139694 185.96153846161906,243.46286325671826 185.85502958577126,243.3688586401695 185.6420118343085,242.74216041629552 185.61538461537566,242.36614083044697 185.80177514790557,241.8647806227964 185.88165680482052,241.363419546542 185.37573964498006,240.01600735020475 185.32248520711437,239.76532531908015 185.13609467458446,239.42063717194833 185.18934911245015,238.8879365005996 185.26923076924868,238.54324730834924 185.2159763314994,238.2298931409896 185.05621301778592,238.01054502185434 184.68343195260968,237.7598612535803 184.33727810659911,237.72852576733567 184.17751479288563,237.79119673653622 183.43195266264956,237.57184828494792 183.11242603557184,237.57184828494792 182.73964497051202,237.32116413669428 182.5,237.03914421028458 181.86094674561173,236.94513750713668 181.301775148022,236.38109664665535 181.11538461549208,236.2870897296525 180.79585798818152,236.0364044685266 180.52958579885308,235.91106175654568 179.99704142019618,235.94239743959042 179.62426035501994,235.7857189901115 179.33136094675865,235.19034010867472 179.3047337278258,235.06499703016016 179.1183431952959,234.7516390964156 178.93195266276598,234.59496000225772 178.07988165691495,234.25026569658075 177.86686390533578,234.09358633102966 177.8136094674701,234.0309145610372 177.41420118359383,233.81156325910706 177.01479289948475,233.78022734523984 176.2692307693651,233.5608758534363 175.9763313609874,233.59221179099404 175.73668639059179,233.46686802024487 175.57692307699472,233.49820396807627 175.47041420114692,233.6862195834692 174.8047337278258,233.5608758534363 174.5118343195645,233.40419611459947 174.16568047332112,233.49820396807627 174.00591715984046,233.46686802024487 173.7396449703956,233.5608758534363 172.99408284027595,233.87423507659696 172.4881656804355,233.9995786709187 172.16863905335777,234.1562580873724 171.4763313609874,234.62629582788213 171.34319526632316,234.6576316500432 170.99704142007977,234.9083181057067 170.70414201181848,235.19034010867472 170.57100591715425,235.37835462467046 170.5443786982214,235.56636901840102 170.3047337278258,235.87972607000847 170.14497041411232,236.47510353307007 170.11834319517948,236.69445281592198 169.95857988169882,237.03914421028458 169.95857988169882,237.1958219811786 169.8786982249003,237.38383519419585 169.79881656810176,237.47784175473498 169.585798816639,237.6031837882765 169.3461538462434,237.69719027765677 169.2396449703956,237.63451928811264 168.7603550296044,237.72852576733567 168.30769230762962,238.01054502185434 168.20118343201466,238.2612285729556 168.2278106509475,238.38657026700093 168.06804733723402,239.16995462516206 167.80177514790557,239.60864893952385 167.37573964486364,239.9533368627308 167.215976331383,239.9533368627308 167.08284023671877,240.0473425888049 166.9230769231217,239.98467210817034 166.65680473367684,239.70265477747307 166.31065088754985,239.42063717194833 165.88461538462434,239.23262528225314 165.8047337278258,239.10728395462502 165.40532544383314,238.76259502363973 164.7928994082613,238.16722226672573 164.57988165691495,238.07321592999506 164.04733727814164,238.01054502185434 163.94082840229385,238.1358868245734 163.914201183361,238.85660113650374 163.9674556213431,239.16995462516206 163.70118343189824,239.07594861427788 163.14201183442492,238.60591810106416 162.5562130176695,238.54324730834924 162.28994082834106,238.57458270640927 162.0236686390126,238.79393039792194 161.73076923075132,239.23262528225314 161.27810650877655,239.35796655563172 161.0118343195645,239.5146430710447 160.93195266264956,239.6399842222163 160.69230769225396,240.11001305581885 160.66568047332112,240.54870594508247 160.58579881652258,240.67404664843343 160.5325443786569,241.01873330277158 160.50591715984046,241.58276512424345 160.34615384612698,241.95878572785296 160.21301775146276,242.11546083522262 159.8934911241522,242.36614083044697 159.68047337268945,242.39747581462143 159.28106508869678,242.33480584298377 159.09467455616686,242.39747581462143 158.26923076924868,242.77349535972462 157.97633136087097,243.02417478500865 157.49704142007977,243.11817951340345 157.09763313597068,243.43152838791138 156.72485207091086,243.87021624224144 156.2721893490525,244.12089471751824 155.81952662719414,244.21489908982767 155.28698224842083,244.1522295116156 155.07396449707448,244.0268903147371 154.86094674561173,243.80754658949445 154.56804733723402,243.61953754979186 154.00887573952787,243.3688586401695 153.63609467458446,242.99283986867522 153.130177514744,242.74216041629552 152.57100591715425,242.67949051916366 151.74556213023607,242.80483029966126 151.2396449702792,243.02417478500865 150.14792899403255,243.58820269798161 149.85502958577126,243.6822072432551 149.48224852071144,243.7135420848208 148.84319526620675,243.58820269798161 148.31065088754985,243.65087239816785 148.07100591703784,243.52553298405837 147.83136094664223,243.1808493155404 147.61834319517948,243.05550969784963 147.16568047332112,242.5228157172387 146.7928994082613,241.67677032094798 146.60650887561496,241.39475463921553 146.02071005909238,241.05006843275623 145.8609467454953,241.01873330277158 145.75443786988035,240.95606303249951 145.1420118343085,240.92472789229942 144.7958579880651,240.86205760171288 143.62426035490353,241.05006843275623 143.38461538450792,241.23807914170902 143.11834319517948,241.26941424803226 142.958579881466,241.23807914170902 142.45266272185836,241.363419546542 142.39940828399267,241.332084450376 142.26627218921203,241.08140355945216 141.8136094674701,240.89339274869417 141.65384615387302,240.70538181587472 141.414201183361,240.58004112594062 141.3609467454953,240.32935958364396 141.20118343201466,240.20401873090304 141.09467455616686,239.98467210817034 140.72189349110704,239.45197247510077 140.4023668637965,239.13861929162522 140.24260355019942,238.69992426480167 140.13609467446804,238.6372534923721 140.05621301778592,238.4179056820867 139.94970414193813,238.29256400154554 139.92307692288887,238.1045513789286 139.78994082834106,237.88520316488575 139.7100591714261,237.5405127782724 139.60355029569473,237.35249966714764 139.5236686390126,236.9764730783063 139.44378698221408,236.72578841427458 139.33727810636628,235.7857189901115 139.25739644956775,235.50369756744476 139.284023668617,235.28434738190845 139.36390532541554,235.19034010867472 139.25739644956775,234.62629582788213 139.41715976316482,234.18759396046516 139.36390532541554,234.09358633102966 139.41715976316482,233.90557098030695 139.3905325444648,233.71755550743546 139.0976331360871,233.24751629083767 139.01775147917215,233.2161803159688 138.7514792898437,232.8714843679045 138.72485207091086,232.74614028498763 138.53846153838094,232.52678800927242 138.4585798815824,232.33877164055593 138.19230769225396,232.08808295891504 137.71301775146276,231.27334324383992 137.57988165668212,230.9286449815263 137.42011834308505,230.70929132806486 137.39349112426862,230.45860123477178 137.26035502948798,230.17657462024363 137.12721893482376,229.64385693176882 137.2071005916223,229.48717507204856 137.28698224853724,228.82911033471464 137.42011834308505,228.60975508971023 137.52662721881643,228.23371714001405 137.5532544378657,227.73233244687435 137.42011834308505,227.26228350802558 136.99408284015954,226.79223380569601 136.4881656804355,226.51020361765404 136.16863905324135,226.41619349393295 135.76923076913226,226.44753020521603 135.369822485256,226.60421371087432 134.99704142007977,226.63555040181382 134.8905325443484,226.60421371087432 134.51775147928856,226.2281731548137 134.38461538450792,226.25950988652767 133.9585798815824,225.97747917933157 133.82544378691819,226.35352006120957 133.61242603545543,226.57287701661699 133.31952662719414,227.1056003587437 133.10650887573138,227.63832272024592 133.0,228.26505365452613 133.07988165668212,228.32772667324753 133.31952662719414,228.20238062212593 133.69230769225396,228.29639016557485 133.87869822478388,228.23371714001405 134.0650887574302,228.35906317754416 134.14497041411232,228.45307267009048 134.33136094664223,228.60975508971023 134.3047337278258,228.89178323143278 134.3579881656915,228.9857925507531 134.6508875739528,229.07980183977634 135.05029585782904,228.9544561143557 135.18343195260968,229.04846541341976 135.74260355019942,229.76920235843863 135.82248520699795,230.67795507831033 135.87573964498006,230.8033000570431 135.87573964498006,231.05398985170177 136.11538461537566,231.80605793258292 136.75443786964752,232.65213218721328 138.00591715972405,233.6862195834692 138.29881656798534,234.37560912795016 138.48520710051525,235.37835462467046 138.56508875719737,236.2870897296525 138.59171597624663,237.32116413669428 138.48520710051525,237.72852576733567 138.59171597624663,238.1045513789286 138.64497041411232,238.51191190685495 138.8047337277094,238.79393039792194 138.9378698223736,238.85660113650374 139.31065088754985,239.29529592578183 139.33727810636628,239.42063717194833 139.49704142007977,239.6399842222163 139.44378698221408,239.89066636183998 139.76331360940821,240.20401873090304 139.8165680472739,240.45470038193162 140.42899408284575,241.4574248144927 140.96153846150264,242.08412582051824 141.92011834308505,242.33480584298377 142.3727810649434,242.2721358576382 143.19822485209443,242.33480584298377 143.27810650877655,242.24080085995956 144.18343195249327,242.96150494902395 144.3165680472739,243.1495144161454 144.3698224851396,243.3061888788361 144.50295857980382,243.52553298405837 144.58284023660235,243.87021624224144 144.52958579885308,244.46557726652827 144.39644970418885,244.99826767115155 144.47633136087097,245.31161451002117 144.66272189340089,245.65629564085975 145.328402366722,246.12631470325869 145.70118343178183,246.22031842410797 146.02071005909238,246.22031842410797 146.63313609466422,245.78163413208677 146.9260355028091,245.68763026883244 147.11242603545543,245.530957095325 148.044378698105,245.46828780218493 148.44378698209766,245.68763026883244 148.78994082834106,245.78163413208677 149.02958579873666,245.9696417672094 149.24260355031583,246.0636455390486 149.32248520711437,246.18898385384819 149.82840236683842,246.53366393985925 150.01479289948475,246.8156746138411 150.38757396442816,247.16035395351355 150.49408284015954,247.41102957894327 150.89349112426862,247.849711401097 151.13313609466422,248.25705821195152 151.0532544378657,248.41372990974924 150.9467455620179,248.50773288751952 150.89349112426862,248.60173583493452 150.78698224842083,248.60173583493452 150.7071005916223,248.72707305054064 150.60059171600733,249.07175011379877 150.62721893482376,249.47909520476242 150.68047337280586,249.6671004378877 151.02662721881643,250.16844712937018 151.21301775146276,250.82646334395395 151.1863905325299,251.26513998929295 151.34615384612698,251.45314406225225 151.5325443786569,251.57848004309926 151.79881656798534,251.57848004309926 152.27810650889296,251.76648391259369 152.51775147940498,251.73514994286234 152.86390532541554,251.6411480131792 153.55621301778592,251.26513998929295 153.9023668639129,251.13980387273477 154.1420118343085,251.01446770195616 154.51479289936833,251.0458017497731 154.80769230762962,250.98313365070499 155.47337278106716,250.95179959616507 155.95266272185836,251.13980387273477 156.72485207091086,251.86048580147326 157.01775147917215,252.01715554852854 157.41715976328123,252.04848948772997 158.6420118343085,251.98582160592196 158.8816568047041,252.01715554852854 159.52071005909238,251.92315371049335 160.0,251.57848004309926 160.21301775146276,251.26513998929295 160.90532544371672,250.57579067666666 161.0650887574302,250.26244953731657 161.27810650877655,250.16844712937018 161.3579881656915,250.043110537983 161.51775147928856,249.94910805870313 161.6508875739528,249.510429418704 161.75739644968417,249.29108984940103 161.81065088754985,248.9464130474371 161.75739644968417,248.69573875176138 161.81065088754985,248.60173583493452 161.86390532529913,248.3197269012453 162.0236686390126,248.06905206278316 162.0769230768783,247.88104579146602 162.39644970407244,247.56770173460245 162.9556213017786,247.3483606929076 163.46153846150264,247.53636731026927 163.67455621284898,248.06905206278316 163.67455621284898,248.22572386229876 163.7278106509475,248.28839255828643 163.78106508869678,248.60173583493452 163.914201183361,249.07175011379877 164.18047337280586,249.35375831468264 164.4467455621343,249.7297688218241 164.7396449703956,250.043110537983 164.92603550292552,250.2937836665369 165.2721893490525,250.63845886391937 165.5118343194481,250.95179959616507 166.044378698105,251.45314406225225 166.0976331360871,251.54714605299523 166.44378698221408,251.82915184184094 166.5769230768783,252.04848948772997 166.6301775148604,252.2364930519252 166.8165680472739,252.3931625954865 167.00295857980382,252.76916915387847 167.24260355031583,252.89450456481427 167.48224852059502,253.20784285460832 168.01479289936833,253.33317807558342 168.6005917158909,253.2391766649962 169.21301775146276,253.42717945575714 169.66568047332112,253.7405171688879 170.03846153849736,253.6778496533807 170.27810650889296,253.86585215915693 170.49112426035572,253.95985336622107 170.73076923086774,253.95985336622107 170.91715976328123,253.86585215915693 171.02366863912903,253.99118709520553 171.1301775148604,254.02252082066843 171.66272189340089,253.70918341277866" stroke="#4dd2ff" stroke-linecap="round" stroke-linejoin="round" stroke-width="0.5"><title>2022-10-21 6.2km</title></polyline></svg>